<?xml version="1.0" encoding="UTF-8"?>
<svg id="Camada_1" xmlns="http://www.w3.org/2000/svg" version="1.1" viewBox="0 0 36 36">
  <!-- Generator: Adobe Illustrator 30.2.1, SVG Export Plug-In . SVG Version: 2.1.1 Build 1)  -->
  <defs>
    <style>
      .st0 {
        fill: #fefefe;
      }
    </style>
  </defs>
  <circle cx="18" cy="18.1" r="17.85"/>
  <g>
    <path class="st0" d="M22.42,27.74c1.06.28,1.79.33,2.76-.03.81-.57.42-3.41-.94-4.56-2.89-2.45-5.77-4.81-8.5-7.4-2.12-2.01-.99-4.92-1.55-6.4-.42-1.09-1.94-1.14-2.83-.56v18.7c.32.24.81.33,1.19.35.97.04,1.8-.49,1.81-1.49l.06-8.28,3.57,2.81.06,6.48c.02,2.36-1.71,4.1-4.06,4.09l-6.47-.02V4.76c2.38.05,4.69-.14,6.83.14,2.5.32,3.89,2.34,3.72,4.65-.08,1.1-.01,2.47.34,3.43,1.83,1.82,3.71,3.3,5.62,4.95l3.35,2.91c1.42,1.23,2.07,2.84,2.01,4.73-.03,1.14-.01,2.26-.33,3.37-.37,1.28-1.72,2.48-3.1,2.48l-7.25.02.07-3.45-.03-6.3,3.05,2.52c.94.85.5,2.38.63,3.53Z"/>
    <path class="st0" d="M25.42,15.16l-.09-6.38c-.71-.52-2.3-.54-2.74.29-.11.72-.17,3.19-.36,5.16-.16-.07-2.34-1.56-3.02-2.82-.55-1.02-.47-2.91-.23-4.05.33-1.6,2.22-2.58,3.71-2.58h6.59s.15,12.2-.04,13.85l-3.33-2.74c-.13-.11-.49-.58-.49-.75Z"/>
  </g>
</svg>