<?xml version="1.0" encoding="UTF-8"?>
<svg id="Camada_1" xmlns="http://www.w3.org/2000/svg" version="1.1" viewBox="0 0 91.56 45.86">
  <!-- Generator: Adobe Illustrator 30.2.1, SVG Export Plug-In . SVG Version: 2.1.1 Build 1)  -->
  <defs>
    <style>
      .st0 {
        fill: #1d1d1b;
      }
    </style>
  </defs>
  <g>
    <path d="M25.25,34.47l.11,1.14c.06.63.19,1.22.3,1.86h-3.78c-.61-1.75-.56-4.15-.56-6.02v-6.98c0-.48-.05-.92-.2-1.35-.31-.96-1.15-.88-2.03-.83v15.17s-3.73,0-3.73,0c-.11,0-.18-.13-.16-.26v-21.01s0-12.76,0-12.76h4.89c.54,0,1.04,0,1.56.11,1.13.2,2.42.99,2.9,2.06.44.98.66,2.02.66,3.12v7.73c0,.71-.11,1.37-.29,2.03-.11.38-.3.72-.5,1.05-.28.44-.67.7-1.17.99,1.63.83,1.93,2.68,1.94,4.32v7.78c0,.63.02,1.2.08,1.84ZM21.33,15.31v-5.73c0-.5-.03-.95-.06-1.45s-.36-1.16-.94-1.24c-.4-.05-.81-.04-1.24,0v11.94c.54.06,1.54.04,1.85-.39.51-.7.38-2.17.38-3.14Z"/>
    <path d="M13.48,32.38c0,.71-.14,1.32-.3,1.94-.51,2.02-2.38,3.15-4.37,3.15H3.66c-.08,0-.22-.04-.22-.15V3.45s4.64-.01,4.64-.01c.62,0,1.18-.01,1.77.11,2,.42,3.02,1.57,3.45,3.54.19.89.18,1.74.18,2.67v22.62ZM9.63,32.19V8.63c0-.82-.29-1.76-1.22-1.76h-1.04s-.02,1.92-.02,1.92v25.18c.47.05.96.04,1.42-.09.66-.18.86-1.06.86-1.7Z"/>
    <path d="M61.88,39.74v-18.25s-2.34,0-2.34,0v10.71s0,3.53,0,3.53c0,.46.09.89-.05,1.38-.14-.61-.21-1.17-.4-1.74-.55-1.68-1.58-2.83-3.36-3.28v-5.82s0-17.44,0-17.44V3.44s3.81,0,3.81,0v14.49s2.34,0,2.34,0V3.45s3.82,0,3.82,0v25.45s0,10.47,0,10.47c0,.41-.02.8-.15,1.16-.28.77-1,1.19-1.79,1.19s-1.49-.49-1.73-1.28c-.06-.21-.14-.4-.14-.69Z"/>
    <path d="M76.11,36.37c-1.2,1.33-2.73,1.48-4.42,1.36-.95-.07-1.79-.41-2.53-1.02-1.38-1.14-1.69-3.27-1.69-5V9.33c0-.93.09-1.69.25-2.58.37-2.15,2.08-3.52,4.23-3.59.4-.06.78-.03,1.19,0,2.12.14,3.51,1.38,4.03,3.41.23.92.29,1.79.29,2.76v23.03c-.15,1.49-.33,2.89-1.35,4.01ZM72.42,34.33c1.13.08,1.22-1.33,1.22-2.19V8.37c0-.54-.12-1.05-.38-1.47-.19-.3-.56-.37-.89-.35-.85.06-1.01,1.04-1.02,1.75l-.04,4.01v17.7s.02,2.36.02,2.36c0,.77.16,1.9,1.08,1.97Z"/>
    <path d="M49.85,37.73c-2.1.15-4.02-.2-5.07-2.25-.64-1.25-.74-2.72-.74-4.13v-7.3s3.75,0,3.75,0v7.88c.04.73.02,1.69.6,2.19.39.34,1.03.3,1.38-.09s.46-1.49.46-1.99l-.02-3.94c0-.42-.06-.81-.09-1.23-.11-1.33-.51-2.58-1.22-3.7-.51-.81-1.07-1.53-1.7-2.26-.45-.52-.83-1.05-1.22-1.61-1.1-1.6-1.54-2.69-1.77-4.64-.18-1.52-.17-3-.19-4.54-.01-1.13.07-2.2.25-3.29.34-2.06,1.96-3.54,4.05-3.67.76-.05,1.52-.06,2.26.11,1.66.4,2.81,1.69,3.11,3.35.17.9.26,1.76.25,2.7v6.52s-3.69,0-3.69,0v-6.93c-.07-.86,0-2.42-1.22-2.37-.36.01-.67.14-.85.5s-.27.79-.28,1.22c-.05,1.37-.06,2.68-.03,4.06.02,1.28.21,2.55.76,3.72.41.87.99,1.61,1.58,2.36l1.65,2.09c1.4,1.78,1.94,3.92,2.11,6.15.1,1.32.1,4.93.01,6.28-.03.53-.14,1.03-.26,1.53-.44,1.84-1.96,3.17-3.85,3.3Z"/>
    <path d="M40.24,24.98c-.28.93-.19,1.63-.12,2.59.03.42-.15.88-.5,1.12-.39.27-.98.26-1.37,0-.41-.29-.57-.84-.51-1.33.07-.56.05-1.07,0-1.62-.07-.65-.56-1.25-1.26-1.22v2.59s0,8.26,0,8.26v2.12s-3.85,0-3.85,0V3.45s5.27,0,5.27,0c.4,0,.75.03,1.13.11,1.47.27,2.69,1.28,3.15,2.72.25.79.42,1.85.42,2.68v10.28c0,.48-.08.91-.14,1.36-.29,2.22-1.75,2.8-2.23,4.38ZM38.77,19.09v-9.77c0-.68.02-2.12-.75-2.34-.49-.14-1.02-.13-1.52-.06v14.1c.72.04,1.77.13,2.07-.63.16-.41.21-.8.2-1.29Z"/>
    <path d="M89.19,19.52c0,.55-.12,1.04-.21,1.53-.27,1.53-1.28,2.72-2.76,3.23-.55.19-1.14.26-1.73.27l-1.38.02v12.91s-3.85-.01-3.85-.01V3.44s5.13,0,5.13,0c.88,0,1.68.14,2.46.54.99.51,1.69,1.38,1.97,2.46.06.22.14.46.17.68.08.58.19,1.15.19,1.75v10.65ZM85.37,18.09v-7.65c0-.9,0-1.74-.13-2.6-.17-1.07-1.28-1.05-2.14-.93v14.15c.94-.01,1.91.12,2.13-.93.14-.66.13-1.31.13-2.05Z"/>
    <rect x="26.93" y="3.44" width="3.88" height="34.01"/>
  </g>
  <g>
    <path class="st0" d="M3.47,43.47c-.14-.16-.21-.38-.21-.67v-.2h.53v.25c0,.23.1.35.29.35.1,0,.17-.03.22-.08.05-.06.07-.15.07-.27,0-.15-.03-.28-.1-.39-.07-.11-.19-.25-.38-.41-.23-.2-.39-.39-.48-.55-.09-.16-.14-.35-.14-.56,0-.28.07-.5.21-.66.14-.15.35-.23.62-.23s.47.08.61.23c.14.16.21.38.21.67v.15h-.53v-.18c0-.12-.02-.21-.07-.27-.05-.06-.12-.08-.21-.08-.19,0-.28.11-.28.34,0,.13.03.25.1.36.07.11.2.25.38.41.23.2.4.39.48.56.09.17.13.36.13.59,0,.29-.07.52-.22.67s-.35.23-.63.23-.48-.08-.62-.23Z"/>
    <path class="st0" d="M7.42,40.59h-.59v-.51h1.73v.51h-.59v3.06h-.56v-3.06Z"/>
    <path class="st0" d="M10.57,40.08h.83c.29,0,.5.07.63.2.13.13.2.34.2.62v.22c0,.37-.12.6-.37.7h0c.14.05.23.13.29.26.06.13.08.29.08.5v.63c0,.1,0,.18.01.25,0,.06.02.12.05.19h-.57c-.02-.06-.03-.11-.04-.16,0-.05-.01-.14-.01-.28v-.65c0-.16-.03-.28-.08-.34s-.14-.1-.27-.1h-.19v1.53h-.56v-3.57ZM11.33,41.61c.11,0,.2-.03.25-.09s.08-.15.08-.29v-.28c0-.13-.02-.22-.07-.28s-.12-.09-.22-.09h-.25v1.02h.2Z"/>
    <path class="st0" d="M14.36,40.08h1.53v.51h-.97v.94h.77v.51h-.77v1.1h.97v.51h-1.53v-3.57Z"/>
    <path class="st0" d="M17.94,40.08h1.53v.51h-.97v.94h.77v.51h-.77v1.1h.97v.51h-1.53v-3.57Z"/>
    <path class="st0" d="M21.96,40.59h-.59v-.51h1.73v.51h-.59v3.06h-.56v-3.06Z"/>
    <path class="st0" d="M25,40.08h.54l.25,2.74h.01l.27-2.74h.61l.27,2.74h.01l.25-2.74h.48l-.36,3.57h-.7l-.25-2.41h-.01l-.25,2.41h-.74l-.36-3.57Z"/>
    <path class="st0" d="M29.7,40.08h1.53v.51h-.97v.94h.77v.51h-.77v1.1h.97v.51h-1.53v-3.57Z"/>
    <path class="st0" d="M33.72,40.08h.76l.58,3.57h-.56l-.1-.71h0s-.64,0-.64,0l-.1.7h-.52l.58-3.57ZM34.33,42.47l-.25-1.76h-.01l-.24,1.76h.5Z"/>
    <path class="st0" d="M37.06,40.08h.83c.29,0,.5.07.63.2.13.13.2.34.2.62v.22c0,.37-.12.6-.37.7h0c.14.05.23.13.29.26.06.13.08.29.08.5v.63c0,.1,0,.18.01.25,0,.06.02.12.05.19h-.57c-.02-.06-.03-.11-.04-.16,0-.05-.01-.14-.01-.28v-.65c0-.16-.03-.28-.08-.34s-.14-.1-.27-.1h-.19v1.53h-.56v-3.57ZM37.82,41.61c.11,0,.2-.03.25-.09s.08-.15.08-.29v-.28c0-.13-.02-.22-.07-.28s-.12-.09-.22-.09h-.25v1.02h.2Z"/>
    <path class="st0" d="M41.68,39.57h.46v5.1h-.46v-5.1Z"/>
    <path class="st0" d="M45.12,43.26c0-.25.04-.47.12-.65.08-.18.23-.38.44-.6.21-.22.35-.41.43-.57.08-.16.12-.32.12-.49,0-.15-.02-.26-.07-.32s-.12-.09-.22-.09c-.19,0-.29.12-.29.35v.38h-.53v-.35c0-.29.07-.51.21-.67.14-.15.35-.23.62-.23s.48.08.62.23c.14.16.21.38.21.67,0,.22-.05.43-.16.64s-.28.44-.54.71c-.17.18-.28.32-.34.43s-.09.23-.09.35v.08h1.06v.51h-1.62v-.39Z"/>
    <path class="st0" d="M49.07,43.47c-.15-.16-.22-.38-.22-.66v-1.88c0-.29.07-.51.22-.66s.36-.23.63-.23.49.08.63.23c.15.16.22.38.22.66v1.88c0,.29-.07.51-.22.66-.15.16-.36.23-.63.23s-.49-.08-.63-.23ZM50,42.84v-1.95c0-.23-.1-.35-.29-.35s-.29.12-.29.35v1.95c0,.23.1.35.29.35s.29-.12.29-.35Z"/>
    <path class="st0" d="M52.66,43.26c0-.25.04-.47.12-.65.08-.18.23-.38.44-.6.21-.22.35-.41.43-.57.08-.16.12-.32.12-.49,0-.15-.02-.26-.07-.32s-.12-.09-.22-.09c-.19,0-.29.12-.29.35v.38h-.53v-.35c0-.29.07-.51.21-.67.14-.15.35-.23.62-.23s.48.08.62.23c.14.16.21.38.21.67,0,.22-.05.43-.16.64s-.28.44-.54.71c-.17.18-.28.32-.34.43s-.09.23-.09.35v.08h1.06v.51h-1.62v-.39Z"/>
    <path class="st0" d="M56.63,43.47c-.15-.16-.22-.38-.22-.66v-1.84c0-.62.29-.93.86-.93.27,0,.48.08.62.23.14.16.21.38.21.67v.07h-.53v-.1c0-.23-.1-.35-.29-.35-.1,0-.18.03-.23.1-.05.06-.08.18-.08.34v.68h.01c.1-.21.27-.31.51-.31.2,0,.36.07.46.21.11.14.16.34.16.61v.64c0,.29-.07.51-.22.66s-.36.23-.63.23-.49-.08-.63-.23ZM57.55,42.85v-.63c0-.23-.1-.35-.29-.35s-.29.12-.29.35v.63c0,.23.1.35.29.35s.29-.12.29-.35Z"/>
  </g>
  <g>
    <path class="st0" d="M68.69,40.08h.85c.29,0,.5.07.63.2.13.13.2.34.2.62v.14c0,.18-.03.33-.09.45-.06.12-.15.2-.27.25h0c.28.11.42.35.42.75v.31c0,.28-.07.48-.22.63-.14.14-.36.22-.63.22h-.88v-3.57ZM69.47,41.54c.11,0,.2-.03.25-.09.06-.06.08-.16.08-.29v-.2c0-.13-.02-.22-.07-.28s-.12-.09-.22-.09h-.27v.94h.22ZM69.57,43.14c.1,0,.17-.03.22-.08.05-.05.07-.14.07-.27v-.31c0-.16-.03-.28-.08-.34-.06-.06-.15-.09-.28-.09h-.25v1.1h.32Z"/>
    <path class="st0" d="M72.53,40.08h.83c.29,0,.5.07.63.2.13.13.2.34.2.62v.22c0,.37-.12.6-.37.7h0c.14.05.23.13.29.26.06.13.08.29.08.5v.63c0,.1,0,.18.01.25,0,.06.02.12.05.19h-.57c-.02-.06-.03-.11-.04-.16,0-.05-.01-.14-.01-.28v-.65c0-.16-.03-.28-.08-.34s-.14-.1-.27-.1h-.19v1.53h-.56v-3.57ZM73.3,41.61c.11,0,.2-.03.25-.09s.08-.15.08-.29v-.28c0-.13-.02-.22-.07-.28s-.12-.09-.22-.09h-.25v1.02h.2Z"/>
    <path class="st0" d="M76.8,40.08h.76l.58,3.57h-.56l-.1-.71h0s-.64,0-.64,0l-.1.7h-.52l.58-3.57ZM77.42,42.47l-.25-1.76h0l-.25,1.76h.5Z"/>
    <path class="st0" d="M80.3,43.47c-.14-.16-.21-.38-.21-.67v-.2h.53v.25c0,.23.1.35.29.35.09,0,.17-.03.22-.08.05-.06.07-.15.07-.27,0-.15-.03-.28-.1-.39-.07-.11-.19-.25-.38-.41-.23-.2-.39-.39-.48-.55-.09-.16-.14-.35-.14-.56,0-.28.07-.5.21-.66.14-.15.35-.23.62-.23s.47.08.61.23c.14.16.21.38.21.67v.15h-.53v-.18c0-.12-.02-.21-.07-.27s-.12-.08-.21-.08c-.19,0-.28.11-.28.34,0,.13.04.25.1.36s.2.25.38.41c.23.2.4.39.48.56.09.17.13.36.13.59,0,.29-.07.52-.22.67-.14.16-.35.23-.63.23s-.48-.08-.62-.23Z"/>
    <path class="st0" d="M83.86,40.08h.56v3.57h-.56v-3.57Z"/>
    <path class="st0" d="M86.62,40.08h.56v3.06h.92v.51h-1.48v-3.57Z"/>
  </g>
</svg>